<svg id="Layer_1" data-name="Layer 1" xmlns="http://www.w3.org/2000/svg" viewBox="0 0 99.34 39.08"><defs><style>.cls-1{fill:#efefef;}</style></defs><title>logo</title><path class="cls-1" d="M11.26,39.06a9.94,9.94,0,0,1-8.06-4A16,16,0,0,1,0,24.72a29.94,29.94,0,0,1,2.2-11.65A21.36,21.36,0,0,1,8.44,4.55a13.64,13.64,0,0,1,8.72-3.3,12.36,12.36,0,0,1,7.53,2.11,6.1,6.1,0,0,1,2.85,5,7.4,7.4,0,0,1-1.73,4.95A11.53,11.53,0,0,1,22,12.58,8.25,8.25,0,0,1,18.9,10.8l1-5.29a6.15,6.15,0,0,0-3.3-.79q-3.2,0-5.66,5.47a32.82,32.82,0,0,0-2.5,13.48q0,5.29,1.8,7.69a5.17,5.17,0,0,0,4.27,2.38q4.14,0,8-3.88l2.15,1.94a17.1,17.1,0,0,1-2.09,2.3,21,21,0,0,1-3,2.44,16.81,16.81,0,0,1-3.72,1.75A13.75,13.75,0,0,1,11.26,39.06Z" transform="translate(-0.01)"/><path class="cls-1" d="M27.07,29.36q0-6.55,4-10.34a12.62,12.62,0,0,1,9-3.8,8.14,8.14,0,0,1,5.08,1.52,4.85,4.85,0,0,1,2,4.06,7,7,0,0,1-1.28,4.27,9,9,0,0,1-3.12,2.67A23.73,23.73,0,0,1,35.94,30l-1.26.16q0.37,4.92,4,4.92a6.59,6.59,0,0,0,2.67-.63,10.21,10.21,0,0,0,2.2-1.26l0.79-.63,1.26,1.68a8.5,8.5,0,0,1-1.68,1.52,23,23,0,0,1-2.39,1.56A13.55,13.55,0,0,1,34.88,39a7,7,0,0,1-5.71-2.57A11,11,0,0,1,27.07,29.36Zm11.73-4a6.71,6.71,0,0,0,1.57-4.61q0-2.83-1.68-2.83-2,0-3.06,3.38a20.89,20.89,0,0,0-1.07,6.31A7.09,7.09,0,0,0,38.8,25.36Z" transform="translate(-0.01)"/><path class="cls-1" d="M73,35.24q-4.45,3.82-7.83,3.82a3.55,3.55,0,0,1-3.89-3.18q0-.09,0-0.17a12,12,0,0,1-3.51,2.46,8.37,8.37,0,0,1-3.4.89,5.36,5.36,0,0,1-4.29-2.2q-1.78-2.2-1.78-6.81,0-6.91,2.93-10.87t6.62-4A11,11,0,0,1,64,16.86a75.64,75.64,0,0,0,1.62-13.3l-0.23-2.2A23.42,23.42,0,0,1,73.1,0a4.77,4.77,0,0,1,.42,2q0,3.82-2.3,15.53T68.91,33.46q0,1.26.58,1.26a7.64,7.64,0,0,0,2-1L72,33.36ZM60.38,18.36q-1.83,0-3.17,3.61a20.53,20.53,0,0,0-1.34,7.15,12.57,12.57,0,0,0,.5,4.53,1.59,1.59,0,0,0,1.49,1,5.26,5.26,0,0,0,3.4-1.41q0.18-2.14,2.36-14A7,7,0,0,0,60.38,18.36Z" transform="translate(-0.01)"/><path class="cls-1" d="M81.8,39.06a6.86,6.86,0,0,1-5.66-2.54,11,11,0,0,1-2-7.1,16.29,16.29,0,0,1,3.12-10,10.14,10.14,0,0,1,8.61-4.19l1.84,0.13a4.19,4.19,0,0,1,2-.47q4.13,0,4.14,7.8a26.81,26.81,0,0,0,4.35-.57L99,21.91l0.31,2a24.3,24.3,0,0,1-4.66,1.31l-1,.21a22.34,22.34,0,0,1-4,9.56A9.34,9.34,0,0,1,81.8,39.06Zm2.83-4.5q2.2,0,4-2.83a18.85,18.85,0,0,0,2.44-6q-5.63,0-5.63-4.16a7.37,7.37,0,0,1,.68-3.14l0.26-.52a1.17,1.17,0,0,0-.52-0.1,0.86,0.86,0,0,0-.47.1q-1.31.84-2.46,3.93a20.15,20.15,0,0,0-1.15,7.07q0,5.65,2.84,5.65h0Z" transform="translate(-0.01)"/></svg>